<svg width="643" height="643" viewBox="0 0 643 643" fill="none" xmlns="http://www.w3.org/2000/svg">
<g clip-path="url(#clip0_2_6)">
<path d="M622.16 345.06H395.97L591.86 231.97C601.46 226.43 604.74 214.16 599.2 204.57C593.66 194.97 581.39 191.7 571.8 197.23L375.92 310.3L489.01 114.43C494.55 104.84 491.26 92.57 481.67 87.03C472.08 81.5 459.81 84.78 454.27 94.37L341.17 290.24V64.06C341.17 52.98 332.19 44 321.11 44C310.03 44 301.05 52.98 301.05 64.06V290.24L187.96 94.37C182.42 84.77 170.15 81.49 160.56 87.03C150.96 92.57 147.68 104.84 153.22 114.43L266.31 310.31L70.43 197.22C60.83 191.69 48.57 194.97 43.03 204.56C37.49 214.15 40.78 226.42 50.37 231.96L246.25 345.05H20.06C8.98 345.05 0 354.03 0 365.11C0 376.19 8.98 385.17 20.06 385.17H246.25L50.37 498.27C40.77 503.81 37.49 516.08 43.03 525.67C46.75 532.11 53.49 535.7 60.42 535.7C63.82 535.7 67.27 534.83 70.43 533.01L321.11 388.29L571.8 533.02C574.96 534.84 578.41 535.71 581.81 535.71C588.74 535.71 595.49 532.11 599.2 525.68C604.74 516.09 601.45 503.82 591.86 498.28L395.97 385.18H622.16C633.24 385.18 642.22 376.2 642.22 365.12C642.22 354.04 633.24 345.06 622.16 345.06Z" fill="white"/>
<path d="M458.58 560.96L332.05 479.3C331.89 479.2 331.72 479.11 331.55 479.01C331.21 478.8 330.86 478.6 330.51 478.41C330.23 478.26 329.95 478.13 329.66 478C329.37 477.86 329.07 477.72 328.77 477.6C328.43 477.46 328.08 477.34 327.73 477.22C327.48 477.13 327.23 477.04 326.97 476.97C326.59 476.85 326.21 476.76 325.82 476.66C325.58 476.6 325.34 476.54 325.09 476.5C324.71 476.42 324.32 476.36 323.94 476.31C323.68 476.27 323.41 476.24 323.15 476.21C322.79 476.17 322.44 476.15 322.08 476.14C321.77 476.13 321.47 476.12 321.16 476.11C320.85 476.11 320.54 476.12 320.24 476.14C319.88 476.16 319.53 476.18 319.17 476.21C318.91 476.24 318.64 476.27 318.38 476.31C318 476.36 317.61 476.42 317.23 476.5C316.98 476.55 316.74 476.61 316.5 476.67C316.12 476.76 315.74 476.86 315.36 476.97C315.1 477.05 314.85 477.14 314.59 477.23C314.25 477.35 313.9 477.47 313.56 477.61C313.26 477.73 312.96 477.87 312.66 478.01C312.38 478.14 312.1 478.27 311.82 478.42C311.47 478.61 311.12 478.81 310.78 479.02C310.62 479.12 310.45 479.2 310.28 479.31L183.75 560.97C174.44 566.98 171.76 579.4 177.77 588.7C181.61 594.64 188.06 597.89 194.64 597.89C198.37 597.89 202.14 596.85 205.5 594.68L321.15 520.04L436.81 594.68C440.17 596.85 443.94 597.89 447.67 597.89C454.26 597.89 460.71 594.65 464.54 588.7C470.56 579.38 467.88 566.97 458.58 560.96Z" fill="white"/>
</g>
<defs>
<clipPath id="clip0_2_6">
<rect width="642.22" height="642.22" fill="white"/>
</clipPath>
</defs>
</svg>
